<svg xmlns="http://www.w3.org/2000/svg" xmlns:xlink="http://www.w3.org/1999/xlink" width="40" zoomAndPan="magnify" viewBox="0 0 30 30.000001" height="40" preserveAspectRatio="xMidYMid meet" version="1.0"><defs><filter x="0%" y="0%" width="100%" height="100%" id="eb1a53cddf"><feColorMatrix values="0 0 0 0 1 0 0 0 0 1 0 0 0 0 1 0 0 0 1 0" color-interpolation-filters="sRGB"/></filter><clipPath id="f1f0d979c0"><path d="M 0.484375 0 L 29.515625 0 L 29.515625 29.03125 L 0.484375 29.03125 Z M 0.484375 0 " clip-rule="nonzero"/></clipPath><clipPath id="37102fe4f2"><path d="M 15 0 C 6.984375 0 0.484375 6.5 0.484375 14.515625 C 0.484375 22.53125 6.984375 29.03125 15 29.03125 C 23.015625 29.03125 29.515625 22.53125 29.515625 14.515625 C 29.515625 6.5 23.015625 0 15 0 Z M 15 0 " clip-rule="nonzero"/></clipPath><mask id="d5e61b4827"><g filter="url(#eb1a53cddf)"><rect x="-3" width="36" fill="#000000" y="-3" height="36.000001" fill-opacity="0.07"/></g></mask><clipPath id="cca0a5b9c1"><path d="M 1 1.050781 L 9 1.050781 L 9 9 L 1 9 Z M 1 1.050781 " clip-rule="nonzero"/></clipPath><clipPath id="f015bd178d"><path d="M 3 1.050781 L 8 1.050781 L 8 4 L 3 4 Z M 3 1.050781 " clip-rule="nonzero"/></clipPath><clipPath id="7796bebb33"><path d="M 0.785156 4 L 11.671875 4 L 11.671875 12.664062 L 0.785156 12.664062 Z M 0.785156 4 " clip-rule="nonzero"/></clipPath><clipPath id="efc2cb78de"><path d="M 1 4 L 11.671875 4 L 11.671875 12.664062 L 1 12.664062 Z M 1 4 " clip-rule="nonzero"/></clipPath><clipPath id="7161e4707f"><rect x="0" width="13" y="0" height="13"/></clipPath><clipPath id="8d5289fea5"><path d="M 6.175781 8 L 14 8 L 14 19 L 6.175781 19 Z M 6.175781 8 " clip-rule="nonzero"/></clipPath><clipPath id="064b2a6d5e"><path d="M 6.175781 9 L 25 9 L 25 25 L 6.175781 25 Z M 6.175781 9 " clip-rule="nonzero"/></clipPath><clipPath id="1b961cb19c"><path d="M 7 9 L 26.496094 9 L 26.496094 25 L 7 25 Z M 7 9 " clip-rule="nonzero"/></clipPath></defs><g clip-path="url(#f1f0d979c0)"><g clip-path="url(#37102fe4f2)"><path fill="#b6cced" d="M 0.484375 0 L 29.515625 0 L 29.515625 29.03125 L 0.484375 29.03125 Z M 0.484375 0 " fill-opacity="1" fill-rule="nonzero"/></g></g><g mask="url(#d5e61b4827)"><g transform="matrix(1, 0, 0, 1, 10, 6)"><g clip-path="url(#7161e4707f)"><path fill="#000000" d="M 8.648438 4.613281 C 8.789062 4.625 8.941406 4.636719 9.054688 4.726562 C 9.261719 4.894531 9.226562 5.214844 9.167969 5.472656 C 8.859375 6.867188 8.511719 8.257812 8.125 9.632812 C 8.097656 9.730469 8.066406 9.832031 7.988281 9.894531 C 7.777344 10.070312 7.425781 9.871094 7.210938 9.800781 C 6.976562 9.726562 6.761719 9.699219 6.519531 9.695312 C 5.914062 9.683594 5.324219 9.417969 4.753906 9.238281 C 4.640625 9.203125 4.511719 9.152344 4.476562 9.039062 C 4.453125 8.96875 4.472656 8.894531 4.488281 8.824219 C 4.636719 8.28125 4.789062 7.734375 4.933594 7.191406 C 5.011719 6.902344 5.085938 6.617188 5.164062 6.328125 C 5.226562 6.085938 5.378906 5.765625 5.378906 5.515625 C 5.453125 5.230469 5.511719 4.46875 5.84375 4.355469 C 5.96875 4.308594 6.101562 4.386719 6.222656 4.414062 C 6.449219 4.46875 6.683594 4.46875 6.917969 4.484375 C 7.492188 4.527344 8.070312 4.570312 8.648438 4.613281 Z M 8.648438 4.613281 " fill-opacity="1" fill-rule="nonzero"/><path fill="#000000" d="M 1.589844 3.996094 C 1.613281 3.886719 1.644531 3.773438 1.71875 3.695312 C 1.828125 3.574219 2.011719 3.550781 2.175781 3.539062 C 2.746094 3.496094 3.320312 3.453125 3.894531 3.414062 C 4.128906 3.394531 4.402344 3.390625 4.566406 3.566406 C 4.675781 3.6875 4.699219 3.863281 4.71875 4.023438 C 4.902344 5.75 4.890625 7.496094 4.6875 9.21875 C 3.769531 9.175781 2.855469 9.070312 1.949219 8.914062 C 1.828125 8.890625 1.695312 8.863281 1.609375 8.773438 C 1.535156 8.695312 1.511719 8.582031 1.492188 8.480469 C 1.410156 8.089844 1.332031 7.703125 1.25 7.3125 C 1.175781 6.953125 1.070312 6.621094 1.140625 6.257812 C 1.214844 5.878906 1.269531 5.492188 1.347656 5.109375 C 1.414062 4.765625 1.589844 4.34375 1.589844 3.996094 Z M 1.589844 3.996094 " fill-opacity="1" fill-rule="nonzero"/><g clip-path="url(#cca0a5b9c1)"><path fill="#000000" d="M 5.820312 2.191406 C 5.847656 2.371094 5.871094 2.550781 5.882812 2.730469 C 5.886719 2.785156 5.796875 2.796875 5.789062 2.746094 C 5.742188 2.417969 5.734375 2.074219 5.617188 1.761719 C 5.402344 1.210938 4.683594 1.320312 4.320312 1.652344 C 4.132812 1.824219 4.007812 2.050781 3.964844 2.304688 C 3.941406 2.445312 3.941406 2.589844 3.964844 2.734375 C 3.984375 2.863281 4.035156 2.984375 4.066406 3.109375 C 4.070312 3.128906 4.046875 3.144531 4.035156 3.128906 C 3.929688 3.003906 3.890625 2.820312 3.871094 2.664062 C 3.851562 2.503906 3.863281 2.335938 3.902344 2.179688 C 4.035156 1.660156 4.546875 1.234375 5.09375 1.28125 C 5.367188 1.308594 5.59375 1.453125 5.699219 1.707031 C 5.765625 1.863281 5.792969 2.03125 5.820312 2.191406 Z M 8.738281 5.132812 C 8.625 5.089844 8.503906 5.074219 8.386719 5.054688 C 8.332031 5.042969 8.273438 5.035156 8.21875 5.027344 C 8.320312 4.519531 8.320312 3.941406 7.917969 3.574219 C 7.738281 3.410156 7.5 3.328125 7.261719 3.378906 C 7.144531 3.402344 7.035156 3.457031 6.941406 3.53125 C 6.863281 3.59375 6.753906 3.703125 6.753906 3.8125 C 6.753906 3.839844 6.785156 3.847656 6.804688 3.832031 C 6.84375 3.800781 6.863281 3.753906 6.894531 3.714844 C 6.929688 3.671875 6.972656 3.632812 7.019531 3.597656 C 7.105469 3.53125 7.210938 3.484375 7.320312 3.46875 C 7.546875 3.433594 7.761719 3.539062 7.910156 3.707031 C 8.238281 4.074219 8.1875 4.554688 8.117188 5.007812 C 8.089844 5.003906 8.0625 5 8.03125 4.996094 C 7.796875 4.953125 7.558594 4.914062 7.324219 4.875 C 6.859375 4.796875 6.398438 4.710938 5.929688 4.664062 C 5.902344 4.660156 5.898438 4.703125 5.921875 4.707031 C 6.386719 4.820312 6.863281 4.894531 7.332031 4.976562 C 7.5625 5.015625 7.792969 5.054688 8.023438 5.09375 C 8.050781 5.097656 8.078125 5.105469 8.105469 5.109375 C 8.097656 5.152344 8.089844 5.199219 8.085938 5.242188 C 8.078125 5.292969 8.148438 5.316406 8.160156 5.265625 C 8.171875 5.21875 8.183594 5.171875 8.195312 5.125 C 8.371094 5.164062 8.554688 5.199219 8.726562 5.195312 C 8.765625 5.195312 8.769531 5.144531 8.738281 5.132812 Z M 2.75 3.683594 C 2.640625 3.683594 2.535156 3.6875 2.425781 3.695312 C 2.320312 3.699219 2.210938 3.707031 2.105469 3.71875 C 1.992188 3.730469 1.886719 3.753906 1.777344 3.773438 C 1.742188 3.78125 1.75 3.839844 1.785156 3.835938 C 2.003906 3.820312 2.222656 3.804688 2.4375 3.792969 C 2.546875 3.789062 2.652344 3.785156 2.761719 3.78125 C 2.855469 3.78125 2.972656 3.796875 3.058594 3.757812 C 3.078125 3.75 3.074219 3.71875 3.058594 3.710938 C 2.972656 3.664062 2.84375 3.683594 2.75 3.683594 Z M 1.886719 4.105469 C 1.808594 4.429688 1.777344 4.769531 1.734375 5.101562 C 1.695312 5.433594 1.664062 5.765625 1.636719 6.097656 C 1.609375 6.433594 1.589844 6.765625 1.574219 7.097656 C 1.566406 7.265625 1.558594 7.429688 1.554688 7.597656 C 1.550781 7.765625 1.539062 7.941406 1.558594 8.105469 C 1.566406 8.136719 1.617188 8.136719 1.621094 8.105469 C 1.648438 7.953125 1.644531 7.789062 1.652344 7.632812 C 1.65625 7.46875 1.664062 7.300781 1.671875 7.132812 C 1.6875 6.792969 1.707031 6.457031 1.734375 6.117188 C 1.761719 5.785156 1.789062 5.453125 1.824219 5.121094 C 1.859375 4.785156 1.910156 4.445312 1.925781 4.109375 C 1.929688 4.085938 1.890625 4.082031 1.886719 4.105469 Z M 1.886719 4.105469 " fill-opacity="1" fill-rule="nonzero"/></g><path fill="#000000" d="M 2.996094 4 C 2.992188 3.980469 2.992188 3.960938 2.988281 3.9375 C 2.972656 3.808594 2.882812 3.519531 2.929688 3.394531 C 2.980469 3.265625 3.195312 3.210938 3.3125 3.175781 C 4.644531 2.753906 6.027344 2.5 7.417969 2.410156 C 7.683594 4.320312 7.875 6.238281 7.878906 8.164062 C 7.878906 8.269531 7.875 8.382812 7.816406 8.46875 C 7.746094 8.566406 7.617188 8.601562 7.5 8.628906 C 6.378906 8.890625 5.246094 9.097656 4.101562 9.253906 C 4.003906 9.269531 3.894531 9.277344 3.8125 9.21875 C 3.734375 9.160156 3.714844 9.054688 3.699219 8.957031 C 3.496094 7.722656 3.304688 6.492188 3.144531 5.25 C 3.089844 4.832031 3.039062 4.417969 2.996094 4 Z M 2.996094 4 " fill-opacity="1" fill-rule="nonzero"/><g clip-path="url(#f015bd178d)"><path fill="#000000" d="M 7.234375 2.617188 C 7.078125 2.621094 6.917969 2.65625 6.765625 2.683594 C 6.617188 2.710938 6.464844 2.742188 6.316406 2.773438 C 6.289062 2.777344 6.265625 2.78125 6.238281 2.789062 C 6.207031 2.574219 6.164062 2.359375 6.113281 2.152344 C 6.023438 1.800781 5.863281 1.472656 5.539062 1.28125 C 5.179688 1.066406 4.738281 1.160156 4.457031 1.460938 C 4.195312 1.738281 4.101562 2.140625 4.144531 2.511719 C 4.175781 2.75 4.21875 2.996094 4.28125 3.234375 C 4.027344 3.300781 3.777344 3.367188 3.523438 3.441406 C 3.503906 3.433594 3.484375 3.433594 3.46875 3.429688 C 3.433594 3.425781 3.398438 3.425781 3.359375 3.421875 C 3.320312 3.417969 3.28125 3.414062 3.242188 3.410156 C 3.222656 3.40625 3.207031 3.40625 3.1875 3.40625 C 3.167969 3.40625 3.144531 3.402344 3.125 3.410156 C 3.113281 3.417969 3.105469 3.433594 3.117188 3.445312 C 3.144531 3.46875 3.191406 3.476562 3.222656 3.484375 C 3.265625 3.492188 3.304688 3.496094 3.34375 3.503906 C 3.382812 3.507812 3.417969 3.511719 3.453125 3.515625 C 3.484375 3.515625 3.546875 3.523438 3.558594 3.484375 C 3.804688 3.425781 4.050781 3.371094 4.300781 3.3125 C 4.324219 3.40625 4.355469 3.496094 4.386719 3.585938 C 4.402344 3.625 4.457031 3.609375 4.449219 3.570312 C 4.429688 3.476562 4.410156 3.386719 4.390625 3.292969 C 4.722656 3.21875 5.054688 3.144531 5.386719 3.070312 C 5.644531 3.011719 5.898438 2.960938 6.15625 2.90625 C 6.171875 3 6.183594 3.09375 6.191406 3.1875 C 6.199219 3.25 6.300781 3.25 6.292969 3.1875 C 6.28125 3.085938 6.269531 2.984375 6.253906 2.886719 C 6.273438 2.882812 6.289062 2.878906 6.308594 2.875 C 6.457031 2.84375 6.609375 2.816406 6.757812 2.785156 C 6.917969 2.753906 7.085938 2.730469 7.242188 2.675781 C 7.273438 2.664062 7.269531 2.617188 7.234375 2.617188 Z M 5.378906 2.96875 C 5.042969 3.042969 4.707031 3.125 4.371094 3.210938 C 4.335938 3.046875 4.304688 2.878906 4.273438 2.714844 C 4.214844 2.367188 4.214844 2.027344 4.394531 1.710938 C 4.597656 1.359375 5.03125 1.144531 5.421875 1.328125 C 5.742188 1.484375 5.914062 1.800781 6.003906 2.132812 C 6.0625 2.355469 6.105469 2.582031 6.140625 2.808594 C 5.886719 2.859375 5.632812 2.914062 5.378906 2.96875 Z M 5.378906 2.96875 " fill-opacity="1" fill-rule="nonzero"/></g><path fill="#000000" d="M 3.695312 5.488281 C 3.667969 5.171875 3.632812 4.859375 3.589844 4.546875 C 3.570312 4.398438 3.550781 4.253906 3.527344 4.109375 C 3.503906 3.949219 3.492188 3.773438 3.441406 3.621094 C 3.433594 3.597656 3.398438 3.601562 3.398438 3.625 C 3.394531 3.789062 3.433594 3.957031 3.453125 4.121094 C 3.46875 4.273438 3.488281 4.425781 3.507812 4.582031 C 3.542969 4.894531 3.574219 5.207031 3.605469 5.523438 C 3.632812 5.835938 3.65625 6.152344 3.679688 6.464844 C 3.699219 6.773438 3.691406 7.097656 3.75 7.402344 C 3.753906 7.433594 3.800781 7.421875 3.804688 7.394531 C 3.839844 7.078125 3.792969 6.746094 3.773438 6.429688 C 3.753906 6.113281 3.726562 5.800781 3.695312 5.488281 Z M 3.695312 5.488281 " fill-opacity="1" fill-rule="nonzero"/><g clip-path="url(#7796bebb33)"><path fill="#000000" d="M 11.046875 4.535156 C 10.984375 4.445312 10.910156 4.375 10.800781 4.34375 C 10.75 4.332031 10.695312 4.324219 10.644531 4.316406 C 10.539062 4.296875 10.4375 4.277344 10.332031 4.261719 C 10.230469 4.242188 10.125 4.226562 10.019531 4.210938 C 9.945312 4.199219 9.875 4.1875 9.800781 4.179688 C 9.6875 4.167969 9.597656 4.222656 9.503906 4.285156 C 9.371094 4.375 9.253906 4.902344 9.195312 5.136719 C 9.175781 5.210938 9.15625 5.285156 9.136719 5.359375 C 9.050781 5.351562 8.964844 5.351562 8.878906 5.351562 C 8.710938 5.351562 8.546875 5.351562 8.378906 5.351562 C 8.023438 5.347656 7.664062 5.347656 7.304688 5.347656 C 6.597656 5.347656 5.894531 5.351562 5.191406 5.359375 C 4.488281 5.367188 3.78125 5.378906 3.078125 5.394531 C 2.71875 5.402344 2.359375 5.40625 2 5.421875 C 1.671875 5.433594 1.265625 5.402344 0.972656 5.578125 C 0.929688 5.601562 0.902344 5.640625 0.882812 5.683594 C 0.820312 5.742188 0.78125 5.820312 0.785156 5.90625 C 0.789062 6.160156 0.863281 6.421875 0.914062 6.667969 C 0.960938 6.910156 1.011719 7.152344 1.058594 7.394531 C 1.15625 7.878906 1.242188 8.367188 1.351562 8.851562 C 1.382812 8.984375 1.507812 9.074219 1.640625 9.089844 C 1.832031 9.265625 2.144531 9.273438 2.390625 9.316406 C 2.671875 9.367188 2.957031 9.417969 3.242188 9.46875 C 3.792969 9.566406 4.347656 9.664062 4.898438 9.765625 C 5.453125 9.867188 6.003906 9.96875 6.558594 10.074219 C 6.824219 10.125 7.09375 10.179688 7.363281 10.230469 C 7.507812 10.257812 7.671875 10.304688 7.832031 10.339844 C 7.808594 10.449219 7.78125 10.566406 7.769531 10.679688 C 7.664062 10.679688 7.5625 10.6875 7.472656 10.6875 C 7.183594 10.6875 6.894531 10.6875 6.605469 10.6875 C 6.039062 10.6875 5.472656 10.679688 4.90625 10.667969 C 4.339844 10.660156 3.777344 10.644531 3.210938 10.625 C 2.933594 10.617188 2.660156 10.609375 2.382812 10.597656 C 2.085938 10.585938 1.78125 10.523438 1.515625 10.683594 C 1.347656 10.789062 1.371094 11 1.515625 11.105469 C 1.75 11.28125 2.058594 11.242188 2.34375 11.253906 C 2.632812 11.265625 2.921875 11.277344 3.210938 11.289062 C 3.789062 11.304688 4.371094 11.320312 4.949219 11.332031 C 5.515625 11.34375 6.078125 11.347656 6.644531 11.351562 C 6.933594 11.351562 7.226562 11.355469 7.515625 11.351562 C 7.804688 11.347656 8.113281 11.378906 8.355469 11.191406 C 8.445312 11.125 8.445312 11.015625 8.40625 10.925781 C 8.480469 10.738281 8.480469 10.496094 8.515625 10.3125 C 8.570312 10.03125 8.632812 9.753906 8.699219 9.472656 C 8.832031 8.914062 8.984375 8.359375 9.144531 7.808594 C 9.300781 7.253906 9.464844 6.703125 9.617188 6.148438 C 9.6875 5.882812 9.757812 5.617188 9.820312 5.351562 C 9.855469 5.195312 9.902344 5.027344 9.925781 4.859375 C 10.03125 4.878906 10.132812 4.894531 10.234375 4.914062 C 10.324219 4.929688 10.410156 4.945312 10.5 4.960938 C 10.554688 4.972656 10.609375 4.984375 10.667969 4.992188 C 10.769531 5.003906 10.859375 4.988281 10.945312 4.929688 C 11.066406 4.851562 11.140625 4.671875 11.046875 4.535156 Z M 1.976562 8.597656 C 1.914062 8.253906 1.84375 7.914062 1.773438 7.578125 C 1.992188 7.605469 2.21875 7.621094 2.445312 7.628906 C 2.445312 7.796875 2.449219 7.964844 2.449219 8.132812 C 2.453125 8.308594 2.449219 8.488281 2.453125 8.664062 C 2.296875 8.636719 2.132812 8.597656 1.976562 8.597656 Z M 2.4375 6.40625 C 2.4375 6.59375 2.4375 6.777344 2.4375 6.964844 C 2.175781 6.960938 1.914062 6.972656 1.652344 7.003906 C 1.621094 6.851562 1.589844 6.699219 1.5625 6.546875 C 1.53125 6.398438 1.507812 6.242188 1.472656 6.089844 C 1.652344 6.097656 1.832031 6.085938 2 6.082031 C 2.152344 6.078125 2.304688 6.074219 2.453125 6.070312 C 2.441406 6.1875 2.441406 6.304688 2.4375 6.40625 Z M 3.765625 8.890625 C 3.636719 8.871094 3.507812 8.84375 3.375 8.824219 C 3.292969 8.808594 3.210938 8.792969 3.128906 8.78125 C 3.132812 8.542969 3.113281 8.300781 3.113281 8.070312 L 3.105469 7.640625 C 3.355469 7.648438 3.601562 7.652344 3.851562 7.65625 C 3.828125 8.070312 3.800781 8.480469 3.765625 8.890625 Z M 3.898438 6.4375 C 3.890625 6.625 3.886719 6.8125 3.878906 6.996094 C 3.632812 6.992188 3.386719 6.984375 3.140625 6.980469 C 3.125 6.980469 3.109375 6.980469 3.09375 6.980469 C 3.089844 6.789062 3.085938 6.597656 3.078125 6.40625 C 3.074219 6.300781 3.070312 6.179688 3.054688 6.058594 C 3.0625 6.058594 3.070312 6.054688 3.078125 6.054688 C 3.355469 6.050781 3.628906 6.046875 3.90625 6.042969 C 3.894531 6.1875 3.898438 6.332031 3.898438 6.4375 Z M 5.164062 9.140625 C 5.121094 9.132812 5.078125 9.125 5.035156 9.117188 C 4.828125 9.082031 4.625 9.046875 4.417969 9.007812 C 4.457031 8.5625 4.484375 8.117188 4.507812 7.671875 C 4.660156 7.675781 4.8125 7.679688 4.960938 7.683594 C 5.09375 7.683594 5.222656 7.6875 5.355469 7.691406 C 5.292969 8.175781 5.222656 8.65625 5.164062 9.140625 Z M 5.507812 6.414062 C 5.480469 6.621094 5.457031 6.824219 5.433594 7.03125 C 5.277344 7.027344 5.121094 7.023438 4.960938 7.019531 C 4.820312 7.019531 4.679688 7.015625 4.539062 7.011719 C 4.546875 6.757812 4.554688 6.5 4.550781 6.246094 C 4.550781 6.191406 4.546875 6.113281 4.535156 6.03125 C 4.753906 6.027344 4.972656 6.023438 5.191406 6.019531 C 5.3125 6.019531 5.433594 6.019531 5.558594 6.019531 C 5.535156 6.152344 5.523438 6.285156 5.507812 6.414062 Z M 6.601562 8.5625 C 6.542969 8.820312 6.441406 9.097656 6.394531 9.371094 C 6.199219 9.335938 6.003906 9.296875 5.808594 9.261719 C 5.894531 8.746094 5.953125 8.226562 6.015625 7.707031 C 6.28125 7.710938 6.542969 7.71875 6.808594 7.722656 C 6.738281 8.003906 6.671875 8.28125 6.601562 8.5625 Z M 6.097656 7.046875 C 6.144531 6.703125 6.183594 6.355469 6.171875 6.015625 C 6.523438 6.011719 6.878906 6.007812 7.230469 6.007812 C 7.179688 6.179688 7.144531 6.355469 7.097656 6.53125 C 7.054688 6.707031 7.011719 6.886719 6.96875 7.066406 C 6.679688 7.058594 6.390625 7.050781 6.097656 7.046875 Z M 8.046875 9.335938 C 8.023438 9.445312 8 9.554688 7.972656 9.664062 C 7.839844 9.640625 7.707031 9.621094 7.582031 9.597656 C 7.410156 9.566406 7.238281 9.53125 7.070312 9.5 C 7.144531 9.25 7.183594 8.980469 7.242188 8.738281 C 7.324219 8.40625 7.40625 8.070312 7.484375 7.738281 C 7.8125 7.746094 8.140625 7.753906 8.464844 7.757812 C 8.316406 8.28125 8.171875 8.804688 8.046875 9.335938 Z M 8.65625 7.101562 C 8.652344 7.101562 8.648438 7.101562 8.648438 7.101562 C 8.3125 7.09375 7.980469 7.085938 7.644531 7.078125 C 7.675781 6.953125 7.707031 6.828125 7.734375 6.703125 C 7.785156 6.476562 7.859375 6.242188 7.878906 6.007812 C 8.046875 6.007812 8.214844 6.007812 8.378906 6.007812 C 8.546875 6.007812 8.710938 6.011719 8.878906 6.011719 C 8.90625 6.011719 8.933594 6.011719 8.964844 6.011719 C 8.863281 6.378906 8.757812 6.738281 8.65625 7.101562 Z M 2.722656 11.925781 C 2.746094 12 2.761719 12.085938 2.730469 12.15625 C 2.707031 12.214844 2.65625 12.257812 2.601562 12.289062 C 2.546875 12.316406 2.484375 12.332031 2.421875 12.347656 C 2.3125 12.378906 2.191406 12.410156 2.082031 12.363281 C 2.003906 12.332031 1.941406 12.261719 1.902344 12.183594 C 1.824219 12.042969 1.8125 11.863281 1.878906 11.714844 C 1.917969 11.636719 1.976562 11.570312 2.054688 11.523438 C 2.113281 11.488281 2.191406 11.457031 2.261719 11.457031 C 2.328125 11.460938 2.398438 11.515625 2.449219 11.550781 C 2.574219 11.648438 2.671875 11.777344 2.722656 11.925781 Z M 8.132812 11.925781 C 8.160156 12 8.171875 12.085938 8.144531 12.15625 C 8.117188 12.214844 8.070312 12.257812 8.015625 12.289062 C 7.957031 12.316406 7.898438 12.332031 7.835938 12.347656 C 7.726562 12.378906 7.605469 12.410156 7.496094 12.363281 C 7.414062 12.332031 7.355469 12.261719 7.3125 12.183594 C 7.238281 12.042969 7.226562 11.863281 7.292969 11.714844 C 7.328125 11.636719 7.390625 11.570312 7.464844 11.523438 C 7.527344 11.488281 7.605469 11.457031 7.675781 11.457031 C 7.742188 11.460938 7.8125 11.515625 7.863281 11.550781 C 7.988281 11.648438 8.085938 11.777344 8.132812 11.925781 Z M 8.132812 11.925781 " fill-opacity="1" fill-rule="nonzero"/></g><g clip-path="url(#efc2cb78de)"><path fill="#000000" d="M 2.472656 11.214844 C 2.261719 11.164062 2.03125 11.191406 1.84375 11.300781 C 1.636719 11.417969 1.511719 11.621094 1.488281 11.855469 C 1.457031 12.113281 1.578125 12.367188 1.792969 12.515625 C 1.878906 12.574219 1.980469 12.609375 2.082031 12.628906 C 2.183594 12.652344 2.285156 12.660156 2.390625 12.644531 C 2.617188 12.613281 2.832031 12.488281 2.949219 12.289062 C 3.066406 12.09375 3.085938 11.84375 2.996094 11.632812 C 2.90625 11.421875 2.699219 11.269531 2.472656 11.214844 Z M 2.640625 12.117188 C 2.609375 12.230469 2.476562 12.285156 2.371094 12.308594 C 2.363281 12.308594 2.347656 12.3125 2.34375 12.3125 C 2.320312 12.3125 2.296875 12.316406 2.277344 12.316406 C 2.257812 12.316406 2.238281 12.3125 2.21875 12.3125 C 2.21875 12.3125 2.214844 12.3125 2.210938 12.3125 C 2.207031 12.308594 2.195312 12.308594 2.191406 12.308594 C 2.175781 12.304688 2.15625 12.300781 2.140625 12.292969 C 2.132812 12.292969 2.101562 12.28125 2.097656 12.28125 C 1.921875 12.195312 1.855469 11.945312 1.933594 11.769531 C 2.007812 11.601562 2.183594 11.519531 2.359375 11.546875 C 2.476562 11.566406 2.585938 11.648438 2.632812 11.757812 C 2.65625 11.808594 2.667969 11.875 2.667969 11.9375 C 2.667969 12 2.65625 12.066406 2.640625 12.117188 Z M 7.886719 11.214844 C 7.675781 11.164062 7.445312 11.191406 7.257812 11.300781 C 7.050781 11.417969 6.925781 11.621094 6.902344 11.855469 C 6.871094 12.113281 6.992188 12.367188 7.207031 12.515625 C 7.292969 12.574219 7.394531 12.609375 7.496094 12.628906 C 7.59375 12.652344 7.699219 12.660156 7.800781 12.644531 C 8.03125 12.613281 8.246094 12.488281 8.363281 12.289062 C 8.480469 12.09375 8.5 11.84375 8.410156 11.632812 C 8.320312 11.421875 8.113281 11.269531 7.886719 11.214844 Z M 8.054688 12.117188 C 8.019531 12.230469 7.886719 12.285156 7.785156 12.308594 C 7.777344 12.308594 7.761719 12.3125 7.753906 12.3125 C 7.734375 12.3125 7.710938 12.316406 7.691406 12.316406 C 7.671875 12.316406 7.652344 12.3125 7.632812 12.3125 C 7.632812 12.3125 7.628906 12.3125 7.625 12.3125 C 7.617188 12.308594 7.609375 12.308594 7.605469 12.308594 C 7.585938 12.304688 7.570312 12.300781 7.550781 12.292969 C 7.546875 12.292969 7.515625 12.28125 7.511719 12.28125 C 7.335938 12.195312 7.269531 11.945312 7.347656 11.769531 C 7.421875 11.601562 7.597656 11.519531 7.773438 11.546875 C 7.890625 11.566406 8 11.648438 8.046875 11.757812 C 8.070312 11.808594 8.082031 11.875 8.082031 11.9375 C 8.082031 12 8.070312 12.066406 8.054688 12.117188 Z M 9.304688 6.054688 C 9.007812 6.074219 8.703125 6.050781 8.40625 6.042969 C 8.117188 6.039062 7.828125 6.035156 7.539062 6.03125 C 6.496094 6.019531 5.449219 6.019531 4.402344 6.035156 C 3.886719 6.042969 3.371094 6.050781 2.851562 6.066406 C 2.589844 6.074219 2.324219 6.082031 2.058594 6.089844 C 1.796875 6.097656 1.53125 6.109375 1.269531 6.097656 C 1.230469 6.097656 1.230469 6.042969 1.269531 6.039062 C 1.566406 6.003906 1.867188 6 2.167969 5.988281 C 2.457031 5.980469 2.746094 5.96875 3.035156 5.960938 C 4.078125 5.9375 5.125 5.921875 6.167969 5.921875 C 6.6875 5.921875 7.203125 5.925781 7.71875 5.933594 C 7.984375 5.9375 8.25 5.941406 8.511719 5.949219 C 8.777344 5.953125 9.042969 5.945312 9.304688 5.976562 C 9.355469 5.980469 9.359375 6.050781 9.304688 6.054688 Z M 8.789062 7.808594 C 8.523438 7.820312 8.253906 7.800781 7.984375 7.796875 C 7.726562 7.792969 7.46875 7.785156 7.210938 7.78125 C 6.273438 7.765625 5.335938 7.753906 4.402344 7.730469 C 3.921875 7.71875 3.445312 7.703125 2.96875 7.683594 C 2.496094 7.664062 2.019531 7.65625 1.550781 7.59375 C 1.558594 7.636719 1.570312 7.675781 1.582031 7.714844 C 1.609375 7.820312 1.632812 7.921875 1.65625 8.023438 C 1.679688 8.113281 1.714844 8.214844 1.707031 8.308594 C 1.703125 8.335938 1.667969 8.347656 1.652344 8.324219 C 1.601562 8.242188 1.585938 8.128906 1.566406 8.035156 C 1.542969 7.9375 1.519531 7.839844 1.496094 7.738281 C 1.449219 7.539062 1.40625 7.335938 1.363281 7.132812 C 1.359375 7.09375 1.414062 7.078125 1.421875 7.117188 C 1.460938 7.257812 1.5 7.398438 1.535156 7.539062 C 2.070312 7.53125 2.613281 7.574219 3.148438 7.59375 C 4.089844 7.625 5.03125 7.644531 5.96875 7.660156 C 6.441406 7.671875 6.914062 7.679688 7.386719 7.6875 C 7.621094 7.691406 7.855469 7.695312 8.089844 7.699219 C 8.324219 7.703125 8.558594 7.699219 8.789062 7.722656 C 8.84375 7.726562 8.847656 7.804688 8.789062 7.808594 Z M 7.015625 10.921875 C 6.699219 10.921875 6.378906 10.925781 6.0625 10.925781 C 5.417969 10.925781 4.777344 10.921875 4.136719 10.90625 C 4.105469 10.90625 4.105469 10.863281 4.136719 10.863281 C 4.777344 10.84375 5.417969 10.832031 6.0625 10.828125 C 6.378906 10.824219 6.699219 10.824219 7.015625 10.820312 C 7.339844 10.820312 7.664062 10.808594 7.988281 10.832031 C 8.035156 10.832031 8.035156 10.902344 7.988281 10.90625 C 7.664062 10.925781 7.339844 10.921875 7.015625 10.921875 Z M 11.964844 4.742188 C 11.964844 4.832031 11.933594 4.917969 11.90625 5.003906 C 11.867188 5.113281 11.816406 5.238281 11.703125 5.273438 C 11.644531 5.289062 11.582031 5.277344 11.523438 5.265625 C 11.175781 5.195312 10.816406 5.148438 10.476562 5.050781 C 10.375 5.019531 10.25 5.035156 10.21875 4.914062 C 10.179688 4.769531 10.226562 4.578125 10.28125 4.441406 C 10.289062 4.429688 10.292969 4.414062 10.300781 4.402344 C 10.316406 4.371094 10.335938 4.339844 10.359375 4.3125 C 10.492188 4.183594 10.777344 4.285156 10.933594 4.308594 C 11.171875 4.347656 11.410156 4.382812 11.648438 4.421875 C 11.726562 4.433594 11.808594 4.449219 11.871094 4.5 C 11.941406 4.554688 11.96875 4.652344 11.964844 4.742188 Z M 11.964844 4.742188 " fill-opacity="1" fill-rule="nonzero"/></g></g></g></g><path fill="#fce170" d="M 20.464844 10.410156 C 20.722656 10.429688 21 10.457031 21.207031 10.617188 C 21.585938 10.917969 21.519531 11.5 21.414062 11.972656 C 20.851562 14.503906 20.21875 17.023438 19.515625 19.519531 C 19.46875 19.695312 19.410156 19.882812 19.269531 20 C 18.882812 20.3125 18.246094 19.953125 17.855469 19.828125 C 17.425781 19.691406 17.039062 19.640625 16.59375 19.632812 C 15.496094 19.609375 14.421875 19.132812 13.386719 18.804688 C 13.179688 18.738281 12.949219 18.648438 12.882812 18.445312 C 12.839844 18.320312 12.875 18.183594 12.910156 18.054688 C 13.179688 17.066406 13.453125 16.078125 13.71875 15.085938 C 13.855469 14.566406 13.992188 14.046875 14.132812 13.527344 C 14.25 13.082031 14.523438 12.5 14.523438 12.046875 C 14.660156 11.535156 14.769531 10.148438 15.371094 9.941406 C 15.597656 9.863281 15.839844 10 16.054688 10.050781 C 16.46875 10.148438 16.898438 10.148438 17.320312 10.179688 C 18.367188 10.257812 19.414062 10.335938 20.464844 10.410156 Z M 20.464844 10.410156 " fill-opacity="1" fill-rule="nonzero"/><g clip-path="url(#8d5289fea5)"><path fill="#75baa3" d="M 7.636719 9.289062 C 7.683594 9.09375 7.734375 8.890625 7.871094 8.746094 C 8.070312 8.523438 8.402344 8.488281 8.699219 8.464844 C 9.742188 8.386719 10.78125 8.308594 11.824219 8.234375 C 12.257812 8.199219 12.753906 8.191406 13.042969 8.511719 C 13.246094 8.730469 13.289062 9.046875 13.320312 9.34375 C 13.65625 12.476562 13.636719 15.644531 13.269531 18.769531 C 11.601562 18.6875 9.9375 18.503906 8.292969 18.214844 C 8.066406 18.175781 7.828125 18.125 7.671875 17.957031 C 7.542969 17.816406 7.496094 17.617188 7.457031 17.429688 C 7.3125 16.722656 7.167969 16.015625 7.023438 15.3125 C 6.886719 14.65625 6.691406 14.054688 6.824219 13.398438 C 6.957031 12.707031 7.058594 12.007812 7.195312 11.316406 C 7.320312 10.6875 7.636719 9.925781 7.636719 9.289062 Z M 7.636719 9.289062 " fill-opacity="1" fill-rule="nonzero"/></g><path fill="#403651" d="M 15.324219 6.019531 C 15.375 6.34375 15.421875 6.671875 15.441406 7 C 15.449219 7.097656 15.285156 7.121094 15.269531 7.023438 C 15.183594 6.429688 15.171875 5.804688 14.953125 5.238281 C 14.566406 4.234375 13.257812 4.441406 12.601562 5.035156 C 12.261719 5.347656 12.035156 5.765625 11.957031 6.222656 C 11.910156 6.476562 11.914062 6.742188 11.953125 7 C 11.988281 7.234375 12.082031 7.453125 12.136719 7.683594 C 12.144531 7.714844 12.101562 7.746094 12.078125 7.71875 C 11.894531 7.488281 11.820312 7.160156 11.785156 6.875 C 11.746094 6.582031 11.765625 6.28125 11.839844 5.992188 C 12.082031 5.054688 13.011719 4.277344 14.007812 4.371094 C 14.503906 4.414062 14.917969 4.675781 15.109375 5.140625 C 15.226562 5.417969 15.277344 5.722656 15.324219 6.019531 Z M 20.625 11.355469 C 20.421875 11.273438 20.207031 11.25 19.992188 11.214844 C 19.886719 11.195312 19.785156 11.179688 19.683594 11.160156 C 19.871094 10.242188 19.867188 9.191406 19.136719 8.523438 C 18.8125 8.226562 18.382812 8.082031 17.945312 8.171875 C 17.734375 8.214844 17.535156 8.3125 17.367188 8.445312 C 17.222656 8.5625 17.023438 8.761719 17.019531 8.957031 C 17.019531 9.007812 17.078125 9.023438 17.113281 8.996094 C 17.183594 8.9375 17.222656 8.851562 17.28125 8.78125 C 17.347656 8.703125 17.421875 8.628906 17.503906 8.566406 C 17.664062 8.445312 17.851562 8.367188 18.050781 8.335938 C 18.460938 8.273438 18.851562 8.464844 19.125 8.765625 C 19.722656 9.4375 19.625 10.308594 19.503906 11.128906 C 19.453125 11.121094 19.398438 11.113281 19.347656 11.101562 C 18.917969 11.03125 18.488281 10.957031 18.058594 10.886719 C 17.21875 10.742188 16.375 10.589844 15.523438 10.503906 C 15.476562 10.5 15.46875 10.574219 15.515625 10.582031 C 16.359375 10.789062 17.21875 10.921875 18.074219 11.070312 C 18.496094 11.140625 18.914062 11.210938 19.332031 11.285156 C 19.378906 11.292969 19.429688 11.300781 19.476562 11.3125 C 19.464844 11.394531 19.453125 11.476562 19.441406 11.554688 C 19.429688 11.644531 19.554688 11.6875 19.578125 11.59375 C 19.601562 11.511719 19.621094 11.429688 19.640625 11.34375 C 19.964844 11.410156 20.292969 11.476562 20.609375 11.46875 C 20.679688 11.464844 20.6875 11.375 20.625 11.355469 Z M 9.742188 8.726562 C 9.546875 8.726562 9.351562 8.734375 9.160156 8.746094 C 8.964844 8.753906 8.769531 8.769531 8.574219 8.789062 C 8.371094 8.808594 8.175781 8.851562 7.976562 8.890625 C 7.914062 8.902344 7.929688 9.007812 7.992188 9 C 8.386719 8.972656 8.785156 8.945312 9.179688 8.925781 C 9.375 8.914062 9.570312 8.90625 9.765625 8.90625 C 9.9375 8.902344 10.152344 8.933594 10.308594 8.859375 C 10.339844 8.84375 10.339844 8.792969 10.308594 8.777344 C 10.148438 8.691406 9.917969 8.722656 9.742188 8.726562 Z M 8.175781 9.488281 C 8.039062 10.082031 7.976562 10.695312 7.902344 11.300781 C 7.832031 11.902344 7.773438 12.503906 7.722656 13.109375 C 7.675781 13.710938 7.636719 14.316406 7.609375 14.921875 C 7.59375 15.222656 7.582031 15.527344 7.574219 15.828125 C 7.566406 16.132812 7.542969 16.449219 7.585938 16.753906 C 7.59375 16.808594 7.6875 16.808594 7.699219 16.753906 C 7.746094 16.472656 7.738281 16.175781 7.75 15.894531 C 7.761719 15.589844 7.773438 15.289062 7.785156 14.984375 C 7.816406 14.371094 7.851562 13.753906 7.902344 13.140625 C 7.949219 12.535156 8.003906 11.933594 8.0625 11.332031 C 8.125 10.722656 8.21875 10.109375 8.25 9.496094 C 8.253906 9.457031 8.1875 9.445312 8.175781 9.488281 Z M 8.175781 9.488281 " fill-opacity="1" fill-rule="nonzero"/><path fill="#e5514a" d="M 10.191406 9.300781 C 10.1875 9.265625 10.183594 9.226562 10.179688 9.1875 C 10.152344 8.949219 9.988281 8.425781 10.074219 8.203125 C 10.167969 7.96875 10.554688 7.871094 10.769531 7.800781 C 13.191406 7.042969 15.703125 6.574219 18.234375 6.414062 C 18.714844 9.878906 19.0625 13.363281 19.066406 16.859375 C 19.066406 17.046875 19.0625 17.253906 18.953125 17.40625 C 18.824219 17.585938 18.59375 17.648438 18.378906 17.699219 C 16.339844 18.171875 14.28125 18.550781 12.207031 18.835938 C 12.027344 18.859375 11.824219 18.878906 11.679688 18.769531 C 11.539062 18.664062 11.5 18.472656 11.472656 18.296875 C 11.101562 16.054688 10.753906 13.820312 10.460938 11.566406 C 10.363281 10.8125 10.273438 10.058594 10.191406 9.300781 Z M 10.191406 9.300781 " fill-opacity="1" fill-rule="nonzero"/><path fill="#403651" d="M 17.894531 6.789062 C 17.613281 6.796875 17.324219 6.859375 17.046875 6.910156 C 16.773438 6.960938 16.5 7.015625 16.226562 7.070312 C 16.179688 7.082031 16.132812 7.089844 16.085938 7.101562 C 16.027344 6.710938 15.953125 6.324219 15.855469 5.945312 C 15.695312 5.308594 15.402344 4.714844 14.820312 4.363281 C 14.164062 3.976562 13.355469 4.144531 12.847656 4.691406 C 12.375 5.195312 12.203125 5.925781 12.28125 6.597656 C 12.335938 7.035156 12.414062 7.476562 12.527344 7.910156 C 12.070312 8.03125 11.609375 8.152344 11.152344 8.285156 C 11.121094 8.273438 11.078125 8.269531 11.054688 8.265625 C 10.988281 8.257812 10.921875 8.253906 10.855469 8.25 C 10.785156 8.242188 10.710938 8.234375 10.640625 8.226562 C 10.609375 8.226562 10.574219 8.222656 10.539062 8.222656 C 10.507812 8.222656 10.460938 8.21875 10.429688 8.230469 C 10.40625 8.242188 10.390625 8.273438 10.414062 8.292969 C 10.460938 8.335938 10.546875 8.351562 10.609375 8.363281 C 10.679688 8.378906 10.753906 8.386719 10.828125 8.398438 C 10.894531 8.40625 10.960938 8.414062 11.027344 8.417969 C 11.082031 8.421875 11.195312 8.4375 11.214844 8.363281 C 11.664062 8.257812 12.113281 8.15625 12.5625 8.054688 C 12.609375 8.222656 12.664062 8.386719 12.722656 8.550781 C 12.746094 8.617188 12.847656 8.589844 12.832031 8.519531 C 12.796875 8.351562 12.761719 8.183594 12.726562 8.015625 C 13.332031 7.878906 13.9375 7.742188 14.539062 7.609375 C 15.003906 7.507812 15.472656 7.410156 15.9375 7.316406 C 15.960938 7.484375 15.984375 7.652344 16.003906 7.824219 C 16.015625 7.9375 16.199219 7.9375 16.1875 7.824219 C 16.164062 7.640625 16.140625 7.460938 16.113281 7.277344 C 16.148438 7.273438 16.179688 7.265625 16.210938 7.257812 C 16.484375 7.203125 16.757812 7.148438 17.03125 7.097656 C 17.324219 7.039062 17.628906 6.996094 17.910156 6.898438 C 17.964844 6.878906 17.960938 6.789062 17.894531 6.789062 Z M 14.523438 7.429688 C 13.910156 7.5625 13.300781 7.710938 12.695312 7.867188 C 12.632812 7.566406 12.570312 7.269531 12.519531 6.964844 C 12.410156 6.339844 12.40625 5.71875 12.734375 5.148438 C 13.105469 4.503906 13.890625 4.117188 14.601562 4.453125 C 15.1875 4.734375 15.5 5.308594 15.660156 5.910156 C 15.769531 6.3125 15.847656 6.722656 15.910156 7.136719 C 15.449219 7.230469 14.984375 7.328125 14.523438 7.429688 Z M 14.523438 7.429688 " fill-opacity="1" fill-rule="nonzero"/><path fill="#403651" d="M 11.46875 11.996094 C 11.410156 11.425781 11.347656 10.855469 11.273438 10.289062 C 11.238281 10.027344 11.203125 9.761719 11.160156 9.5 C 11.117188 9.207031 11.09375 8.890625 11.003906 8.609375 C 10.988281 8.566406 10.925781 8.574219 10.925781 8.621094 C 10.917969 8.917969 10.988281 9.222656 11.023438 9.519531 C 11.054688 9.796875 11.089844 10.074219 11.121094 10.355469 C 11.183594 10.921875 11.246094 11.492188 11.296875 12.0625 C 11.351562 12.632812 11.394531 13.203125 11.433594 13.773438 C 11.472656 14.332031 11.457031 14.917969 11.5625 15.46875 C 11.574219 15.53125 11.660156 15.511719 11.664062 15.457031 C 11.726562 14.882812 11.644531 14.28125 11.605469 13.707031 C 11.570312 13.136719 11.523438 12.566406 11.46875 11.996094 Z M 11.46875 11.996094 " fill-opacity="1" fill-rule="nonzero"/><g clip-path="url(#064b2a6d5e)"><path fill="#fffcf0" d="M 24.828125 10.273438 C 24.710938 10.105469 24.574219 9.980469 24.375 9.925781 C 24.285156 9.902344 24.1875 9.890625 24.09375 9.871094 C 23.90625 9.839844 23.714844 9.804688 23.527344 9.769531 C 23.339844 9.738281 23.148438 9.710938 22.960938 9.683594 C 22.828125 9.664062 22.691406 9.640625 22.558594 9.625 C 22.351562 9.605469 22.191406 9.703125 22.023438 9.816406 C 21.777344 9.980469 21.570312 10.9375 21.460938 11.363281 C 21.425781 11.496094 21.386719 11.628906 21.355469 11.761719 C 21.199219 11.753906 21.039062 11.753906 20.882812 11.753906 C 20.582031 11.75 20.28125 11.75 19.980469 11.75 C 19.328125 11.746094 18.675781 11.746094 18.023438 11.746094 C 16.742188 11.746094 15.460938 11.753906 14.183594 11.769531 C 12.902344 11.78125 11.621094 11.804688 10.34375 11.832031 C 9.691406 11.84375 9.039062 11.855469 8.386719 11.878906 C 7.789062 11.898438 7.046875 11.84375 6.519531 12.160156 C 6.441406 12.207031 6.386719 12.277344 6.351562 12.355469 C 6.242188 12.457031 6.171875 12.597656 6.171875 12.761719 C 6.179688 13.21875 6.316406 13.691406 6.40625 14.140625 C 6.496094 14.578125 6.585938 15.019531 6.671875 15.460938 C 6.851562 16.339844 7.003906 17.226562 7.207031 18.101562 C 7.265625 18.339844 7.488281 18.507812 7.726562 18.535156 C 8.082031 18.851562 8.644531 18.871094 9.09375 18.949219 C 9.609375 19.039062 10.121094 19.128906 10.636719 19.222656 C 11.644531 19.398438 12.648438 19.578125 13.652344 19.761719 C 14.65625 19.945312 15.660156 20.132812 16.664062 20.324219 C 17.152344 20.417969 17.644531 20.511719 18.132812 20.605469 C 18.394531 20.65625 18.6875 20.742188 18.984375 20.804688 C 18.9375 21.003906 18.890625 21.214844 18.871094 21.421875 C 18.679688 21.421875 18.492188 21.433594 18.332031 21.433594 C 17.804688 21.4375 17.277344 21.4375 16.75 21.433594 C 15.722656 21.429688 14.695312 21.421875 13.667969 21.402344 C 12.640625 21.382812 11.609375 21.359375 10.582031 21.324219 C 10.082031 21.308594 9.582031 21.289062 9.082031 21.269531 C 8.539062 21.25 7.984375 21.132812 7.503906 21.429688 C 7.195312 21.617188 7.238281 22 7.503906 22.195312 C 7.933594 22.511719 8.492188 22.445312 9.003906 22.464844 C 9.53125 22.484375 10.058594 22.503906 10.582031 22.523438 C 11.636719 22.558594 12.6875 22.585938 13.742188 22.605469 C 14.769531 22.625 15.796875 22.632812 16.824219 22.640625 C 17.351562 22.640625 17.878906 22.644531 18.40625 22.640625 C 18.933594 22.636719 19.496094 22.691406 19.933594 22.351562 C 20.097656 22.226562 20.097656 22.03125 20.023438 21.871094 C 20.15625 21.527344 20.164062 21.089844 20.226562 20.757812 C 20.324219 20.246094 20.4375 19.738281 20.558594 19.230469 C 20.796875 18.21875 21.078125 17.210938 21.363281 16.210938 C 21.652344 15.207031 21.949219 14.203125 22.222656 13.199219 C 22.355469 12.71875 22.484375 12.234375 22.597656 11.75 C 22.660156 11.464844 22.75 11.160156 22.789062 10.855469 C 22.976562 10.890625 23.164062 10.925781 23.347656 10.957031 C 23.511719 10.988281 23.671875 11.015625 23.832031 11.046875 C 23.933594 11.066406 24.035156 11.085938 24.136719 11.097656 C 24.316406 11.125 24.484375 11.089844 24.640625 10.988281 C 24.863281 10.84375 24.996094 10.515625 24.828125 10.273438 Z M 8.339844 17.640625 C 8.230469 17.019531 8.097656 16.40625 7.96875 15.789062 C 8.371094 15.84375 8.78125 15.871094 9.1875 15.882812 C 9.191406 16.1875 9.195312 16.496094 9.199219 16.800781 C 9.203125 17.117188 9.199219 17.441406 9.207031 17.761719 C 8.925781 17.710938 8.628906 17.640625 8.339844 17.640625 Z M 9.179688 13.667969 C 9.175781 14.003906 9.179688 14.34375 9.179688 14.679688 C 8.703125 14.675781 8.222656 14.691406 7.753906 14.75 C 7.695312 14.472656 7.640625 14.199219 7.585938 13.921875 C 7.53125 13.65625 7.488281 13.371094 7.425781 13.09375 C 7.75 13.105469 8.082031 13.082031 8.386719 13.078125 C 8.660156 13.074219 8.933594 13.066406 9.210938 13.058594 C 9.183594 13.269531 9.183594 13.484375 9.179688 13.667969 Z M 11.59375 18.175781 C 11.359375 18.136719 11.121094 18.089844 10.882812 18.050781 C 10.734375 18.023438 10.582031 18 10.433594 17.972656 C 10.445312 17.546875 10.410156 17.105469 10.402344 16.683594 L 10.394531 15.90625 C 10.84375 15.917969 11.292969 15.925781 11.746094 15.9375 C 11.707031 16.683594 11.65625 17.429688 11.59375 18.175781 Z M 11.832031 13.726562 C 11.820312 14.0625 11.808594 14.398438 11.796875 14.738281 C 11.351562 14.726562 10.902344 14.71875 10.453125 14.707031 C 10.425781 14.707031 10.398438 14.707031 10.371094 14.707031 C 10.363281 14.359375 10.359375 14.011719 10.347656 13.667969 C 10.339844 13.476562 10.332031 13.25 10.300781 13.03125 C 10.3125 13.03125 10.328125 13.03125 10.34375 13.03125 C 10.84375 13.019531 11.347656 13.015625 11.847656 13.007812 C 11.824219 13.265625 11.835938 13.53125 11.832031 13.726562 Z M 14.132812 18.628906 C 14.054688 18.617188 13.976562 18.601562 13.902344 18.585938 C 13.527344 18.519531 13.152344 18.453125 12.777344 18.386719 C 12.851562 17.578125 12.902344 16.773438 12.941406 15.964844 C 13.21875 15.96875 13.492188 15.976562 13.765625 15.980469 C 14.003906 15.988281 14.242188 15.992188 14.480469 15.996094 C 14.371094 16.875 14.242188 17.75 14.132812 18.628906 Z M 14.753906 13.683594 C 14.707031 14.054688 14.667969 14.425781 14.625 14.800781 C 14.339844 14.792969 14.050781 14.785156 13.765625 14.78125 C 13.507812 14.773438 13.253906 14.769531 12.996094 14.765625 C 13.011719 14.300781 13.027344 13.835938 13.019531 13.375 C 13.015625 13.273438 13.011719 13.132812 12.992188 12.988281 C 13.390625 12.980469 13.785156 12.972656 14.183594 12.96875 C 14.40625 12.964844 14.628906 12.964844 14.847656 12.964844 C 14.8125 13.203125 14.785156 13.441406 14.753906 13.683594 Z M 16.75 17.578125 C 16.636719 18.046875 16.453125 18.550781 16.371094 19.046875 C 16.015625 18.980469 15.660156 18.914062 15.304688 18.847656 C 15.457031 17.910156 15.570312 16.964844 15.683594 16.023438 C 16.160156 16.035156 16.640625 16.042969 17.121094 16.054688 C 16.996094 16.5625 16.875 17.070312 16.75 17.578125 Z M 15.832031 14.824219 C 15.914062 14.203125 15.988281 13.574219 15.964844 12.957031 C 16.605469 12.953125 17.25 12.945312 17.894531 12.945312 C 17.792969 13.25 17.730469 13.574219 17.652344 13.890625 C 17.570312 14.210938 17.492188 14.535156 17.414062 14.859375 C 16.886719 14.847656 16.359375 14.835938 15.832031 14.824219 Z M 19.375 18.980469 C 19.328125 19.179688 19.285156 19.378906 19.242188 19.578125 C 19 19.53125 18.753906 19.5 18.527344 19.457031 C 18.21875 19.398438 17.90625 19.339844 17.597656 19.277344 C 17.734375 18.828125 17.804688 18.335938 17.914062 17.898438 C 18.058594 17.292969 18.207031 16.6875 18.351562 16.082031 C 18.949219 16.09375 19.542969 16.109375 20.136719 16.121094 C 19.867188 17.070312 19.601562 18.019531 19.375 18.980469 Z M 20.476562 14.929688 C 20.472656 14.929688 20.46875 14.925781 20.464844 14.925781 C 19.855469 14.914062 19.25 14.902344 18.640625 14.886719 C 18.695312 14.660156 18.753906 14.433594 18.804688 14.207031 C 18.902344 13.796875 19.03125 13.371094 19.070312 12.945312 C 19.375 12.945312 19.675781 12.945312 19.980469 12.945312 C 20.28125 12.945312 20.582031 12.949219 20.882812 12.949219 C 20.933594 12.949219 20.988281 12.953125 21.039062 12.953125 C 20.855469 13.613281 20.667969 14.269531 20.476562 14.929688 Z M 9.695312 23.683594 C 9.738281 23.816406 9.765625 23.96875 9.710938 24.101562 C 9.664062 24.207031 9.574219 24.285156 9.476562 24.339844 C 9.375 24.390625 9.261719 24.421875 9.152344 24.449219 C 8.949219 24.503906 8.730469 24.558594 8.535156 24.480469 C 8.386719 24.417969 8.277344 24.292969 8.203125 24.152344 C 8.066406 23.890625 8.039062 23.566406 8.164062 23.300781 C 8.230469 23.15625 8.34375 23.035156 8.480469 22.953125 C 8.585938 22.886719 8.734375 22.828125 8.863281 22.832031 C 8.984375 22.835938 9.105469 22.933594 9.199219 23.003906 C 9.425781 23.175781 9.601562 23.414062 9.695312 23.683594 Z M 19.53125 23.683594 C 19.578125 23.816406 19.601562 23.96875 19.546875 24.101562 C 19.503906 24.207031 19.414062 24.285156 19.3125 24.339844 C 19.210938 24.390625 19.101562 24.421875 18.992188 24.449219 C 18.789062 24.503906 18.570312 24.558594 18.375 24.480469 C 18.226562 24.417969 18.113281 24.292969 18.039062 24.152344 C 17.902344 23.890625 17.878906 23.566406 18.003906 23.300781 C 18.070312 23.15625 18.183594 23.035156 18.316406 22.953125 C 18.425781 22.886719 18.574219 22.828125 18.699219 22.832031 C 18.820312 22.835938 18.945312 22.933594 19.039062 23.003906 C 19.265625 23.175781 19.441406 23.414062 19.53125 23.683594 Z M 19.53125 23.683594 " fill-opacity="1" fill-rule="nonzero"/></g><g clip-path="url(#1b961cb19c)"><path fill="#403651" d="M 9.246094 22.390625 C 8.863281 22.296875 8.441406 22.347656 8.097656 22.542969 C 7.722656 22.757812 7.5 23.128906 7.453125 23.554688 C 7.398438 24.023438 7.621094 24.484375 8.007812 24.75 C 8.164062 24.859375 8.347656 24.921875 8.535156 24.953125 C 8.714844 25 8.902344 25.011719 9.089844 24.984375 C 9.503906 24.929688 9.894531 24.703125 10.109375 24.339844 C 10.324219 23.984375 10.355469 23.53125 10.195312 23.152344 C 10.027344 22.765625 9.652344 22.492188 9.246094 22.390625 Z M 9.550781 24.03125 C 9.488281 24.230469 9.246094 24.332031 9.054688 24.371094 C 9.046875 24.375 9.015625 24.378906 9.003906 24.382812 C 8.964844 24.386719 8.925781 24.386719 8.886719 24.386719 C 8.851562 24.386719 8.816406 24.386719 8.78125 24.382812 C 8.78125 24.382812 8.773438 24.382812 8.769531 24.382812 C 8.757812 24.378906 8.738281 24.375 8.734375 24.375 C 8.699219 24.367188 8.667969 24.359375 8.636719 24.351562 C 8.625 24.347656 8.566406 24.324219 8.5625 24.324219 C 8.238281 24.171875 8.121094 23.714844 8.261719 23.394531 C 8.398438 23.09375 8.714844 22.945312 9.035156 22.992188 C 9.25 23.027344 9.445312 23.175781 9.535156 23.375 C 9.578125 23.46875 9.59375 23.585938 9.59375 23.703125 C 9.59375 23.820312 9.578125 23.933594 9.550781 24.03125 Z M 19.085938 22.390625 C 18.699219 22.296875 18.28125 22.347656 17.9375 22.542969 C 17.5625 22.757812 17.335938 23.128906 17.289062 23.554688 C 17.238281 24.023438 17.457031 24.484375 17.84375 24.75 C 18.003906 24.859375 18.1875 24.921875 18.375 24.953125 C 18.550781 25 18.738281 25.011719 18.929688 24.984375 C 19.34375 24.929688 19.730469 24.703125 19.949219 24.339844 C 20.164062 23.984375 20.195312 23.53125 20.035156 23.152344 C 19.867188 22.765625 19.492188 22.492188 19.085938 22.390625 Z M 19.386719 24.03125 C 19.328125 24.230469 19.085938 24.332031 18.894531 24.371094 C 18.882812 24.375 18.851562 24.378906 18.84375 24.382812 C 18.804688 24.386719 18.765625 24.386719 18.726562 24.386719 C 18.691406 24.386719 18.65625 24.386719 18.621094 24.382812 C 18.621094 24.382812 18.613281 24.382812 18.605469 24.382812 C 18.59375 24.378906 18.574219 24.375 18.570312 24.375 C 18.539062 24.367188 18.507812 24.359375 18.472656 24.351562 C 18.460938 24.347656 18.40625 24.324219 18.402344 24.324219 C 18.078125 24.171875 17.960938 23.714844 18.101562 23.394531 C 18.238281 23.09375 18.554688 22.945312 18.875 22.992188 C 19.089844 23.027344 19.285156 23.175781 19.375 23.375 C 19.417969 23.46875 19.433594 23.585938 19.433594 23.703125 C 19.433594 23.820312 19.417969 23.933594 19.386719 24.03125 Z M 21.660156 13.027344 C 21.121094 13.0625 20.566406 13.019531 20.023438 13.007812 C 19.5 13 18.976562 12.992188 18.453125 12.984375 C 16.550781 12.964844 14.652344 12.964844 12.75 12.992188 C 11.8125 13.003906 10.871094 13.023438 9.933594 13.050781 C 9.453125 13.0625 8.972656 13.074219 8.492188 13.089844 C 8.011719 13.101562 7.53125 13.128906 7.050781 13.109375 C 6.980469 13.105469 6.984375 13.007812 7.050781 13 C 7.59375 12.933594 8.144531 12.929688 8.691406 12.910156 C 9.214844 12.890625 9.738281 12.875 10.261719 12.859375 C 12.160156 12.8125 14.0625 12.789062 15.960938 12.789062 C 16.902344 12.789062 17.839844 12.796875 18.78125 12.808594 C 19.261719 12.816406 19.742188 12.824219 20.222656 12.832031 C 20.699219 12.84375 21.1875 12.828125 21.660156 12.886719 C 21.753906 12.894531 21.753906 13.023438 21.660156 13.027344 Z M 20.722656 16.210938 C 20.238281 16.230469 19.746094 16.199219 19.261719 16.1875 C 18.792969 16.179688 18.324219 16.171875 17.855469 16.164062 C 16.152344 16.132812 14.449219 16.109375 12.746094 16.066406 C 11.878906 16.046875 11.011719 16.019531 10.144531 15.984375 C 9.285156 15.949219 8.417969 15.933594 7.566406 15.824219 C 7.585938 15.894531 7.605469 15.96875 7.625 16.042969 C 7.671875 16.226562 7.714844 16.414062 7.757812 16.601562 C 7.796875 16.765625 7.867188 16.949219 7.851562 17.121094 C 7.84375 17.171875 7.78125 17.191406 7.753906 17.144531 C 7.660156 16.996094 7.632812 16.792969 7.59375 16.625 C 7.550781 16.445312 7.507812 16.265625 7.464844 16.085938 C 7.382812 15.71875 7.304688 15.351562 7.230469 14.980469 C 7.214844 14.914062 7.316406 14.886719 7.335938 14.953125 C 7.40625 15.207031 7.472656 15.464844 7.539062 15.71875 C 8.515625 15.707031 9.496094 15.785156 10.46875 15.816406 C 12.179688 15.875 13.890625 15.914062 15.601562 15.945312 C 16.457031 15.960938 17.316406 15.972656 18.175781 15.988281 C 18.601562 15.996094 19.027344 16.003906 19.453125 16.011719 C 19.875 16.023438 20.304688 16.011719 20.722656 16.054688 C 20.824219 16.0625 20.828125 16.207031 20.722656 16.210938 Z M 17.5 21.859375 C 16.921875 21.863281 16.34375 21.863281 15.765625 21.863281 C 14.597656 21.863281 13.429688 21.859375 12.265625 21.835938 C 12.210938 21.832031 12.210938 21.753906 12.265625 21.75 C 13.429688 21.714844 14.597656 21.699219 15.765625 21.6875 C 16.34375 21.683594 16.921875 21.679688 17.5 21.679688 C 18.085938 21.675781 18.679688 21.65625 19.265625 21.695312 C 19.351562 21.699219 19.351562 21.820312 19.265625 21.828125 C 18.679688 21.871094 18.085938 21.855469 17.5 21.859375 Z M 26.496094 10.644531 C 26.492188 10.808594 26.441406 10.964844 26.386719 11.121094 C 26.316406 11.320312 26.222656 11.546875 26.019531 11.609375 C 25.914062 11.640625 25.800781 11.621094 25.691406 11.597656 C 25.058594 11.472656 24.40625 11.382812 23.789062 11.207031 C 23.601562 11.152344 23.378906 11.179688 23.320312 10.957031 C 23.253906 10.691406 23.335938 10.351562 23.433594 10.101562 C 23.445312 10.078125 23.457031 10.054688 23.46875 10.03125 C 23.496094 9.96875 23.53125 9.914062 23.578125 9.867188 C 23.820312 9.632812 24.332031 9.816406 24.617188 9.859375 C 25.050781 9.929688 25.484375 9.996094 25.917969 10.066406 C 26.0625 10.085938 26.210938 10.113281 26.320312 10.203125 C 26.449219 10.308594 26.5 10.480469 26.496094 10.644531 Z M 26.496094 10.644531 " fill-opacity="1" fill-rule="nonzero"/></g></svg>